<mxfile host="65bd71144e">
    <diagram id="59DVpK2oTJnUjy89yL_F" name="Page-1">
        <mxGraphModel dx="823" dy="969" grid="1" gridSize="10" guides="1" tooltips="1" connect="1" arrows="1" fold="1" page="1" pageScale="1" pageWidth="850" pageHeight="1100" math="0" shadow="0">
            <root>
                <mxCell id="0"/>
                <mxCell id="1" parent="0"/>
                <mxCell id="3" value="&lt;font style=&quot;font-size: 18px;&quot;&gt;FSM&lt;/font&gt;" style="text;html=1;align=center;verticalAlign=middle;resizable=0;points=[];autosize=1;strokeColor=none;fillColor=none;" vertex="1" parent="1">
                    <mxGeometry x="395" y="10" width="60" height="40" as="geometry"/>
                </mxCell>
                <mxCell id="11" style="edgeStyle=none;html=1;exitX=1;exitY=0.5;exitDx=0;exitDy=0;fontSize=18;" edge="1" parent="1" source="5" target="10">
                    <mxGeometry relative="1" as="geometry"/>
                </mxCell>
                <mxCell id="5" value="ldle" style="ellipse;whiteSpace=wrap;html=1;aspect=fixed;fontSize=18;" vertex="1" parent="1">
                    <mxGeometry x="290" y="210" width="80" height="80" as="geometry"/>
                </mxCell>
                <mxCell id="8" style="edgeStyle=none;html=1;fontSize=18;" edge="1" parent="1">
                    <mxGeometry relative="1" as="geometry">
                        <mxPoint x="330" y="210" as="targetPoint"/>
                        <mxPoint x="330" y="130" as="sourcePoint"/>
                    </mxGeometry>
                </mxCell>
                <mxCell id="9" value="Reset" style="text;html=1;align=center;verticalAlign=middle;resizable=0;points=[];autosize=1;strokeColor=none;fillColor=none;fontSize=18;" vertex="1" parent="1">
                    <mxGeometry x="295" y="90" width="70" height="40" as="geometry"/>
                </mxCell>
                <mxCell id="13" style="edgeStyle=none;html=1;exitX=0.5;exitY=1;exitDx=0;exitDy=0;entryX=0.5;entryY=0;entryDx=0;entryDy=0;fontSize=18;" edge="1" parent="1" source="10" target="12">
                    <mxGeometry relative="1" as="geometry"/>
                </mxCell>
                <mxCell id="10" value="read chunk" style="ellipse;whiteSpace=wrap;html=1;aspect=fixed;fontSize=18;" vertex="1" parent="1">
                    <mxGeometry x="570" y="210" width="80" height="80" as="geometry"/>
                </mxCell>
                <mxCell id="14" style="edgeStyle=none;html=1;exitX=1;exitY=0.5;exitDx=0;exitDy=0;entryX=1;entryY=0.625;entryDx=0;entryDy=0;entryPerimeter=0;fontSize=18;" edge="1" parent="1" source="12" target="10">
                    <mxGeometry relative="1" as="geometry">
                        <Array as="points">
                            <mxPoint x="770" y="480"/>
                            <mxPoint x="770" y="320"/>
                        </Array>
                    </mxGeometry>
                </mxCell>
                <mxCell id="16" style="edgeStyle=none;html=1;exitX=0.5;exitY=1;exitDx=0;exitDy=0;entryX=0.5;entryY=0;entryDx=0;entryDy=0;fontSize=18;" edge="1" parent="1" source="12" target="15">
                    <mxGeometry relative="1" as="geometry"/>
                </mxCell>
                <mxCell id="12" value="process chunk" style="ellipse;whiteSpace=wrap;html=1;aspect=fixed;fontSize=18;" vertex="1" parent="1">
                    <mxGeometry x="570" y="530" width="80" height="80" as="geometry"/>
                </mxCell>
                <mxCell id="18" style="edgeStyle=none;html=1;exitX=0;exitY=0.5;exitDx=0;exitDy=0;entryX=1;entryY=0.5;entryDx=0;entryDy=0;fontSize=18;" edge="1" parent="1" source="15" target="17">
                    <mxGeometry relative="1" as="geometry"/>
                </mxCell>
                <mxCell id="15" value="validate" style="ellipse;whiteSpace=wrap;html=1;aspect=fixed;fontSize=18;" vertex="1" parent="1">
                    <mxGeometry x="570" y="850" width="80" height="80" as="geometry"/>
                </mxCell>
                <mxCell id="19" style="edgeStyle=none;html=1;exitX=0.5;exitY=0;exitDx=0;exitDy=0;entryX=0.5;entryY=1;entryDx=0;entryDy=0;fontSize=18;" edge="1" parent="1" source="17" target="5">
                    <mxGeometry relative="1" as="geometry"/>
                </mxCell>
                <mxCell id="17" value="output" style="ellipse;whiteSpace=wrap;html=1;aspect=fixed;fontSize=18;" vertex="1" parent="1">
                    <mxGeometry x="290" y="850" width="80" height="80" as="geometry"/>
                </mxCell>
                <mxCell id="21" value="data_ready = 1" style="text;html=1;align=center;verticalAlign=middle;resizable=0;points=[];autosize=1;strokeColor=none;fillColor=none;fontSize=18;" vertex="1" parent="1">
                    <mxGeometry x="380" y="220" width="140" height="40" as="geometry"/>
                </mxCell>
                <mxCell id="22" value="read complitly chunk" style="text;html=1;align=center;verticalAlign=middle;resizable=0;points=[];autosize=1;strokeColor=none;fillColor=none;fontSize=18;rotation=-90;" vertex="1" parent="1">
                    <mxGeometry x="700" y="380" width="190" height="40" as="geometry"/>
                </mxCell>
                <mxCell id="23" value="process successfully" style="text;html=1;align=center;verticalAlign=middle;resizable=0;points=[];autosize=1;strokeColor=none;fillColor=none;fontSize=18;rotation=-90;" vertex="1" parent="1">
                    <mxGeometry x="540" y="710" width="190" height="40" as="geometry"/>
                </mxCell>
                <mxCell id="24" value="read complitly chunk" style="text;html=1;align=center;verticalAlign=middle;resizable=0;points=[];autosize=1;strokeColor=none;fillColor=none;fontSize=18;rotation=-90;" vertex="1" parent="1">
                    <mxGeometry x="480" y="380" width="190" height="40" as="geometry"/>
                </mxCell>
            </root>
        </mxGraphModel>
    </diagram>
</mxfile>